<svg width="390" height="524" viewBox="0 0 390 524" fill="none" xmlns="http://www.w3.org/2000/svg">
<mask id="mask0_39_148" style="mask-type:alpha" maskUnits="userSpaceOnUse" x="-152" y="-117" width="1036" height="642">
<rect width="49.2311" height="49.2311" transform="matrix(1 0 0 -1 -3.30664 524)" stroke="white" stroke-opacity="0.04" stroke-width="0.984621"/>
<rect width="49.2311" height="49.2311" transform="matrix(1 0 0 -1 45.9244 524)" stroke="white" stroke-opacity="0.04" stroke-width="0.984621"/>
<rect width="49.2311" height="49.2311" transform="matrix(1 0 0 -1 95.1555 524)" stroke="white" stroke-opacity="0.04" stroke-width="0.984621"/>
<rect width="49.2311" height="49.2311" transform="matrix(1 0 0 -1 144.387 524)" stroke="white" stroke-opacity="0.04" stroke-width="0.984621"/>
<rect width="49.2311" height="49.2311" transform="matrix(1 0 0 -1 193.618 524)" stroke="white" stroke-opacity="0.04" stroke-width="0.984621"/>
<rect width="49.2311" height="49.2311" transform="matrix(1 0 0 -1 242.849 524)" stroke="white" stroke-opacity="0.04" stroke-width="0.984621"/>
<rect width="49.2311" height="49.2311" transform="matrix(1 0 0 -1 292.08 524)" stroke="white" stroke-opacity="0.04" stroke-width="0.984621"/>
<rect width="49.2311" height="49.2311" transform="matrix(1 0 0 -1 341.311 524)" stroke="white" stroke-opacity="0.04" stroke-width="0.984621"/>
<rect width="49.2311" height="49.2311" transform="matrix(1 0 0 -1 -3.30664 474.763)" stroke="white" stroke-opacity="0.04" stroke-width="0.984621"/>
<rect width="49.2311" height="49.2311" transform="matrix(1 0 0 -1 45.9244 474.763)" stroke="white" stroke-opacity="0.04" stroke-width="0.984621"/>
<rect width="49.2311" height="49.2311" transform="matrix(1 0 0 -1 95.1555 474.763)" stroke="white" stroke-opacity="0.04" stroke-width="0.984621"/>
<rect width="49.2311" height="49.2311" transform="matrix(1 0 0 -1 144.387 474.763)" stroke="white" stroke-opacity="0.04" stroke-width="0.984621"/>
<rect width="49.2311" height="49.2311" transform="matrix(1 0 0 -1 193.618 474.763)" stroke="white" stroke-opacity="0.04" stroke-width="0.984621"/>
<rect width="49.2311" height="49.2311" transform="matrix(1 0 0 -1 242.849 474.763)" stroke="white" stroke-opacity="0.04" stroke-width="0.984621"/>
<rect width="49.2311" height="49.2311" transform="matrix(1 0 0 -1 292.08 474.763)" fill="white" fill-opacity="0.04" stroke="white" stroke-opacity="0.04" stroke-width="0.984621"/>
<rect width="49.2311" height="49.2311" transform="matrix(1 0 0 -1 341.311 474.763)" stroke="white" stroke-opacity="0.04" stroke-width="0.984621"/>
<rect width="49.2311" height="49.2311" transform="matrix(1 0 0 -1 -3.30664 425.541)" stroke="white" stroke-opacity="0.04" stroke-width="0.984621"/>
<rect width="49.2311" height="49.2311" transform="matrix(1 0 0 -1 45.9244 425.541)" stroke="white" stroke-opacity="0.04" stroke-width="0.984621"/>
<rect width="49.2311" height="49.2311" transform="matrix(1 0 0 -1 95.1555 425.541)" stroke="white" stroke-opacity="0.04" stroke-width="0.984621"/>
<rect width="49.2311" height="49.2311" transform="matrix(1 0 0 -1 144.387 425.541)" stroke="white" stroke-opacity="0.04" stroke-width="0.984621"/>
<rect width="49.2311" height="49.2311" transform="matrix(1 0 0 -1 193.618 425.541)" stroke="white" stroke-opacity="0.04" stroke-width="0.984621"/>
<rect width="49.2311" height="49.2311" transform="matrix(1 0 0 -1 242.849 425.541)" stroke="white" stroke-opacity="0.04" stroke-width="0.984621"/>
<rect width="49.2311" height="49.2311" transform="matrix(1 0 0 -1 292.08 425.541)" stroke="white" stroke-opacity="0.04" stroke-width="0.984621"/>
<rect width="49.2311" height="49.2311" transform="matrix(1 0 0 -1 341.311 425.541)" stroke="white" stroke-opacity="0.04" stroke-width="0.984621"/>
<rect width="49.2311" height="49.2311" transform="matrix(1 0 0 -1 -3.30664 376.304)" stroke="white" stroke-opacity="0.04" stroke-width="0.984621"/>
<rect width="49.2311" height="49.2311" transform="matrix(1 0 0 -1 45.9244 376.304)" stroke="white" stroke-opacity="0.04" stroke-width="0.984621"/>
<rect width="49.2311" height="49.2311" transform="matrix(1 0 0 -1 95.1555 376.304)" stroke="white" stroke-opacity="0.04" stroke-width="0.984621"/>
<rect width="49.2311" height="49.2311" transform="matrix(1 0 0 -1 144.387 376.304)" stroke="white" stroke-opacity="0.04" stroke-width="0.984621"/>
<rect width="49.2311" height="49.2311" transform="matrix(1 0 0 -1 193.618 376.304)" stroke="white" stroke-opacity="0.04" stroke-width="0.984621"/>
<rect width="49.2311" height="49.2311" transform="matrix(1 0 0 -1 242.849 376.304)" stroke="white" stroke-opacity="0.04" stroke-width="0.984621"/>
<rect width="49.2311" height="49.2311" transform="matrix(1 0 0 -1 292.08 376.304)" stroke="white" stroke-opacity="0.04" stroke-width="0.984621"/>
<rect width="49.2311" height="49.2311" transform="matrix(1 0 0 -1 341.311 376.304)" stroke="white" stroke-opacity="0.04" stroke-width="0.984621"/>
<rect width="49.2311" height="49.2311" transform="matrix(1 0 0 -1 -3.30664 327.082)" fill="white" fill-opacity="0.04" stroke="white" stroke-opacity="0.04" stroke-width="0.984621"/>
<rect width="49.2311" height="49.2311" transform="matrix(1 0 0 -1 45.9244 327.082)" stroke="white" stroke-opacity="0.04" stroke-width="0.984621"/>
<rect width="49.2311" height="49.2311" transform="matrix(1 0 0 -1 95.1555 327.082)" stroke="white" stroke-opacity="0.04" stroke-width="0.984621"/>
<rect width="49.2311" height="49.2311" transform="matrix(1 0 0 -1 144.387 327.082)" stroke="white" stroke-opacity="0.04" stroke-width="0.984621"/>
<rect width="49.2311" height="49.2311" transform="matrix(1 0 0 -1 193.618 327.082)" stroke="white" stroke-opacity="0.04" stroke-width="0.984621"/>
<rect width="49.2311" height="49.2311" transform="matrix(1 0 0 -1 242.849 327.082)" stroke="white" stroke-opacity="0.04" stroke-width="0.984621"/>
<rect width="49.2311" height="49.2311" transform="matrix(1 0 0 -1 292.08 327.082)" stroke="white" stroke-opacity="0.04" stroke-width="0.984621"/>
<rect width="49.2311" height="49.2311" transform="matrix(1 0 0 -1 341.311 327.082)" stroke="white" stroke-opacity="0.04" stroke-width="0.984621"/>
<rect width="49.2311" height="49.2311" transform="matrix(1 0 0 -1 -3.30664 277.845)" stroke="white" stroke-opacity="0.04" stroke-width="0.984621"/>
<rect width="49.2311" height="49.2311" transform="matrix(1 0 0 -1 45.9244 277.845)" stroke="white" stroke-opacity="0.04" stroke-width="0.984621"/>
<rect width="49.2311" height="49.2311" transform="matrix(1 0 0 -1 95.1555 277.845)" stroke="white" stroke-opacity="0.04" stroke-width="0.984621"/>
<rect width="49.2311" height="49.2311" transform="matrix(1 0 0 -1 144.387 277.845)" stroke="white" stroke-opacity="0.04" stroke-width="0.984621"/>
<rect width="49.2311" height="49.2311" transform="matrix(1 0 0 -1 193.618 277.845)" stroke="white" stroke-opacity="0.04" stroke-width="0.984621"/>
<rect width="49.2311" height="49.2311" transform="matrix(1 0 0 -1 242.849 277.845)" stroke="white" stroke-opacity="0.04" stroke-width="0.984621"/>
<rect width="49.2311" height="49.2311" transform="matrix(1 0 0 -1 292.08 277.845)" stroke="white" stroke-opacity="0.04" stroke-width="0.984621"/>
<rect width="49.2311" height="49.2311" transform="matrix(1 0 0 -1 341.311 277.845)" stroke="white" stroke-opacity="0.04" stroke-width="0.984621"/>
<rect width="49.2311" height="49.2311" transform="matrix(1 0 0 -1 -3.30664 228.608)" stroke="white" stroke-opacity="0.04" stroke-width="0.984621"/>
<rect width="49.2311" height="49.2311" transform="matrix(1 0 0 -1 45.9244 228.608)" stroke="white" stroke-opacity="0.04" stroke-width="0.984621"/>
<rect width="49.2311" height="49.2311" transform="matrix(1 0 0 -1 95.1555 228.608)" stroke="white" stroke-opacity="0.04" stroke-width="0.984621"/>
<rect width="49.2311" height="49.2311" transform="matrix(1 0 0 -1 144.387 228.608)" stroke="white" stroke-opacity="0.04" stroke-width="0.984621"/>
<rect width="49.2311" height="49.2311" transform="matrix(1 0 0 -1 193.618 228.608)" stroke="white" stroke-opacity="0.04" stroke-width="0.984621"/>
<rect width="49.2311" height="49.2311" transform="matrix(1 0 0 -1 242.849 228.608)" stroke="white" stroke-opacity="0.04" stroke-width="0.984621"/>
<rect width="49.2311" height="49.2311" transform="matrix(1 0 0 -1 292.08 228.608)" stroke="white" stroke-opacity="0.04" stroke-width="0.984621"/>
<rect width="49.2311" height="49.2311" transform="matrix(1 0 0 -1 341.311 228.608)" stroke="white" stroke-opacity="0.04" stroke-width="0.984621"/>
<rect width="49.2311" height="49.2311" transform="matrix(1 0 0 -1 -3.30664 179.386)" stroke="white" stroke-opacity="0.04" stroke-width="0.984621"/>
<rect width="49.2311" height="49.2311" transform="matrix(1 0 0 -1 45.9244 179.386)" stroke="white" stroke-opacity="0.04" stroke-width="0.984621"/>
<rect width="49.2311" height="49.2311" transform="matrix(1 0 0 -1 95.1555 179.386)" stroke="white" stroke-opacity="0.04" stroke-width="0.984621"/>
<rect width="49.2311" height="49.2311" transform="matrix(1 0 0 -1 144.387 179.386)" stroke="white" stroke-opacity="0.04" stroke-width="0.984621"/>
<rect width="49.2311" height="49.2311" transform="matrix(1 0 0 -1 193.618 179.386)" stroke="white" stroke-opacity="0.04" stroke-width="0.984621"/>
<rect width="49.2311" height="49.2311" transform="matrix(1 0 0 -1 242.849 179.386)" fill="white" fill-opacity="0.04" stroke="white" stroke-opacity="0.04" stroke-width="0.984621"/>
<rect width="49.2311" height="49.2311" transform="matrix(1 0 0 -1 292.08 179.386)" stroke="white" stroke-opacity="0.04" stroke-width="0.984621"/>
<rect width="49.2311" height="49.2311" transform="matrix(1 0 0 -1 341.311 179.386)" stroke="white" stroke-opacity="0.04" stroke-width="0.984621"/>
<rect width="49.2311" height="49.2311" transform="matrix(1 0 0 -1 -3.30664 130.149)" stroke="white" stroke-opacity="0.04" stroke-width="0.984621"/>
<rect width="49.2311" height="49.2311" transform="matrix(1 0 0 -1 45.9244 130.149)" fill="white" fill-opacity="0.04" stroke="white" stroke-opacity="0.04" stroke-width="0.984621"/>
<rect width="49.2311" height="49.2311" transform="matrix(1 0 0 -1 95.1555 130.149)" stroke="white" stroke-opacity="0.04" stroke-width="0.984621"/>
<rect width="49.2311" height="49.2311" transform="matrix(1 0 0 -1 144.387 130.149)" stroke="white" stroke-opacity="0.04" stroke-width="0.984621"/>
<rect width="49.2311" height="49.2311" transform="matrix(1 0 0 -1 193.618 130.149)" stroke="white" stroke-opacity="0.04" stroke-width="0.984621"/>
<rect width="49.2311" height="49.2311" transform="matrix(1 0 0 -1 242.849 130.149)" stroke="white" stroke-opacity="0.04" stroke-width="0.984621"/>
<rect width="49.2311" height="49.2311" transform="matrix(1 0 0 -1 292.08 130.149)" stroke="white" stroke-opacity="0.04" stroke-width="0.984621"/>
<rect width="49.2311" height="49.2311" transform="matrix(1 0 0 -1 341.311 130.149)" stroke="white" stroke-opacity="0.04" stroke-width="0.984621"/>
<rect width="49.2311" height="49.2311" transform="matrix(1 0 0 -1 -3.30664 80.9115)" stroke="white" stroke-opacity="0.04" stroke-width="0.984621"/>
<rect width="49.2311" height="49.2311" transform="matrix(1 0 0 -1 45.9244 80.9115)" stroke="white" stroke-opacity="0.04" stroke-width="0.984621"/>
<rect width="49.2311" height="49.2311" transform="matrix(1 0 0 -1 95.1555 80.9115)" stroke="white" stroke-opacity="0.04" stroke-width="0.984621"/>
<rect width="49.2311" height="49.2311" transform="matrix(1 0 0 -1 144.387 80.9115)" stroke="white" stroke-opacity="0.04" stroke-width="0.984621"/>
<rect width="49.2311" height="49.2311" transform="matrix(1 0 0 -1 193.618 80.9115)" stroke="white" stroke-opacity="0.04" stroke-width="0.984621"/>
<rect width="49.2311" height="49.2311" transform="matrix(1 0 0 -1 242.849 80.9115)" stroke="white" stroke-opacity="0.04" stroke-width="0.984621"/>
<rect width="49.2311" height="49.2311" transform="matrix(1 0 0 -1 292.08 80.9115)" stroke="white" stroke-opacity="0.04" stroke-width="0.984621"/>
<rect width="49.2311" height="49.2311" transform="matrix(1 0 0 -1 341.311 80.9115)" stroke="white" stroke-opacity="0.04" stroke-width="0.984621"/>
<rect width="49.2311" height="49.2311" transform="matrix(1 0 0 -1 -3.30664 31.6924)" stroke="white" stroke-opacity="0.04" stroke-width="0.984621"/>
<rect width="49.2311" height="49.2311" transform="matrix(1 0 0 -1 45.9244 31.6924)" stroke="white" stroke-opacity="0.04" stroke-width="0.984621"/>
<rect width="49.2311" height="49.2311" transform="matrix(1 0 0 -1 95.1555 31.6924)" stroke="white" stroke-opacity="0.04" stroke-width="0.984621"/>
<rect width="49.2311" height="49.2311" transform="matrix(1 0 0 -1 144.387 31.6924)" stroke="white" stroke-opacity="0.04" stroke-width="0.984621"/>
<rect width="49.2311" height="49.2311" transform="matrix(1 0 0 -1 193.618 31.6924)" stroke="white" stroke-opacity="0.04" stroke-width="0.984621"/>
<rect width="49.2311" height="49.2311" transform="matrix(1 0 0 -1 242.849 31.6924)" stroke="white" stroke-opacity="0.04" stroke-width="0.984621"/>
<rect width="49.2311" height="49.2311" transform="matrix(1 0 0 -1 292.08 31.6924)" stroke="white" stroke-opacity="0.04" stroke-width="0.984621"/>
<rect width="49.2311" height="49.2311" transform="matrix(1 0 0 -1 341.311 31.6924)" stroke="white" stroke-opacity="0.04" stroke-width="0.984621"/>
</mask>
<g mask="url(#mask0_39_148)">
<ellipse cx="517" cy="320" rx="517" ry="320" transform="matrix(1 0 0 -1 -151 348)" fill="url(#paint0_radial_39_148)"/>
</g>
<defs>
<radialGradient id="paint0_radial_39_148" cx="0" cy="0" r="1" gradientUnits="userSpaceOnUse" gradientTransform="translate(517 320) rotate(90) scale(320 517)">
<stop stop-color="white"/>
<stop offset="1"/>
</radialGradient>
</defs>
</svg>
