<svg width="80" height="80" viewBox="0 0 80 80" fill="none" xmlns="http://www.w3.org/2000/svg">
<path d="M79.2116 33.0784C78.995 32.9084 76.97 31.4 72.6983 31.4C71.57 31.405 70.445 31.5 69.3333 31.685C68.5066 26.095 63.9683 23.4684 63.7583 23.3467L62.6116 22.6934L61.8566 23.7667C60.9116 25.21 60.0766 26.7 59.6716 28.3717C58.9066 31.5634 59.3716 34.56 61.015 37.1217C59.0283 38.2134 55.6433 38.31 55 38.3334H2.63664C1.25997 38.335 0.143304 39.4334 0.134971 40.79C0.0733041 45.345 0.723304 50.045 2.31164 54.3217C4.12664 59.0184 6.8283 62.4784 10.3416 64.595C14.2783 66.9734 20.675 68.3334 27.9266 68.3334C31.2016 68.3434 34.4716 68.0517 37.6916 67.46C42.1683 66.6484 46.4766 65.105 50.4366 62.8934C53.7 61.0284 56.6366 58.6567 59.135 55.8684C63.31 51.205 65.7966 46.0134 67.6466 41.3984C67.895 41.3984 68.1433 41.3984 68.3833 41.3984C72.955 41.3984 75.765 39.5934 77.315 38.0817C78.345 37.1167 79.15 35.9417 79.6716 34.64L80 33.6934L79.2116 33.0784Z" fill="#D9D9D9"/>
<path d="M13.3333 36.6667H8.33329C7.41329 36.6667 6.66663 35.92 6.66663 35V30C6.66663 29.08 7.41329 28.3334 8.33329 28.3334H13.3333C14.2533 28.3334 15 29.08 15 30V35C15 35.92 14.2533 36.6667 13.3333 36.6667Z" fill="#D9D9D9"/>
<path d="M23.3333 36.6667H18.3333C17.4133 36.6667 16.6666 35.92 16.6666 35V30C16.6666 29.08 17.4133 28.3334 18.3333 28.3334H23.3333C24.2533 28.3334 25 29.08 25 30V35C25 35.92 24.2533 36.6667 23.3333 36.6667Z" fill="#D9D9D9"/>
<path d="M33.3333 36.6667H28.3333C27.4133 36.6667 26.6666 35.92 26.6666 35V30C26.6666 29.08 27.4133 28.3334 28.3333 28.3334H33.3333C34.2533 28.3334 35 29.08 35 30V35C35 35.92 34.2533 36.6667 33.3333 36.6667Z" fill="#D9D9D9"/>
<path d="M43.3333 36.6667H38.3333C37.4133 36.6667 36.6666 35.92 36.6666 35V30C36.6666 29.08 37.4133 28.3334 38.3333 28.3334H43.3333C44.2533 28.3334 45 29.08 45 30V35C45 35.92 44.2533 36.6667 43.3333 36.6667Z" fill="#D9D9D9"/>
<path d="M23.3333 26.6667H18.3333C17.4133 26.6667 16.6666 25.92 16.6666 25V20C16.6666 19.08 17.4133 18.3334 18.3333 18.3334H23.3333C24.2533 18.3334 25 19.08 25 20V25C25 25.92 24.2533 26.6667 23.3333 26.6667Z" fill="#D9D9D9"/>
<path d="M33.3333 26.6667H28.3333C27.4133 26.6667 26.6666 25.92 26.6666 25V20C26.6666 19.08 27.4133 18.3334 28.3333 18.3334H33.3333C34.2533 18.3334 35 19.08 35 20V25C35 25.92 34.2533 26.6667 33.3333 26.6667Z" fill="#D9D9D9"/>
<path d="M43.3333 26.6667H38.3333C37.4133 26.6667 36.6666 25.92 36.6666 25V20C36.6666 19.08 37.4133 18.3334 38.3333 18.3334H43.3333C44.2533 18.3334 45 19.08 45 20V25C45 25.92 44.2533 26.6667 43.3333 26.6667Z" fill="#D9D9D9"/>
<path d="M43.3333 16.6667H38.3333C37.4133 16.6667 36.6666 15.92 36.6666 15V10C36.6666 9.08004 37.4133 8.33337 38.3333 8.33337H43.3333C44.2533 8.33337 45 9.08004 45 10V15C45 15.92 44.2533 16.6667 43.3333 16.6667Z" fill="#D9D9D9"/>
<path d="M53.3333 36.6667H48.3333C47.4133 36.6667 46.6666 35.92 46.6666 35V30C46.6666 29.08 47.4133 28.3334 48.3333 28.3334H53.3333C54.2533 28.3334 55 29.08 55 30V35C55 35.92 54.2533 36.6667 53.3333 36.6667Z" fill="#D9D9D9"/>
</svg>
