<svg width="62" height="117" viewBox="0 0 62 117" fill="none" xmlns="http://www.w3.org/2000/svg">
<path d="M30.7159 115.27C25.331 115.27 20.6946 114.05 16.8068 111.611C12.9432 109.148 9.97301 105.756 7.89631 101.433C5.8196 97.1106 4.78125 92.1603 4.78125 86.5822C4.78125 80.9316 5.84375 75.9451 7.96875 71.6227C10.0938 67.2761 13.0881 63.8834 16.9517 61.4444C20.8153 59.0055 25.3672 57.7861 30.6072 57.7861C34.8331 57.7861 38.6001 58.5709 41.9084 60.1405C45.2166 61.6859 47.8849 63.8592 49.9134 66.6603C51.9659 69.4615 53.1854 72.7335 53.5717 76.4764H43.0312C42.4517 73.8684 41.1236 71.6227 39.0469 69.7392C36.9943 67.8557 34.2415 66.9139 30.7884 66.9139C27.7699 66.9139 25.1257 67.7108 22.8558 69.3045C20.6101 70.8741 18.8594 73.1199 17.6037 76.0417C16.348 78.9395 15.7202 82.3684 15.7202 86.3287C15.7202 90.3855 16.3359 93.8869 17.5675 96.8329C18.799 99.779 20.5376 102.061 22.7834 103.679C25.0533 105.297 27.7216 106.106 30.7884 106.106C32.8409 106.106 34.7003 105.731 36.3665 104.983C38.0568 104.21 39.4695 103.111 40.6044 101.687C41.7635 100.262 42.5724 98.5474 43.0312 96.5432H53.5717C53.1854 100.141 52.0142 103.353 50.0582 106.178C48.1023 109.003 45.4822 111.225 42.1982 112.843C38.9382 114.461 35.1108 115.27 30.7159 115.27Z" fill="#D9D9D9"/>
<path d="M56.1157 43.3636L35.9403 99H24.3494L4.13772 43.3636H15.7648L29.855 86.1776H30.4346L44.4886 43.3636H56.1157Z" fill="#D9D9D9"/>
</svg>
