<svg width="33" height="33" viewBox="0 0 33 33" fill="none" xmlns="http://www.w3.org/2000/svg">
<path d="M20.5 30.2709V24.9375C20.6855 23.2672 20.2066 21.591 19.1667 20.2709C23.1667 20.2709 27.1667 17.6042 27.1667 12.9375C27.2734 11.2709 26.8067 9.63085 25.8334 8.27085C26.2067 6.73752 26.2067 5.13752 25.8334 3.60419C25.8334 3.60419 24.5 3.60419 21.8334 5.60419C18.3134 4.93752 14.6867 4.93752 11.1667 5.60419C8.50002 3.60419 7.16669 3.60419 7.16669 3.60419C6.76669 5.13752 6.76669 6.73752 7.16669 8.27085C6.19585 9.62537 5.72465 11.2746 5.83335 12.9375C5.83335 17.6042 9.83335 20.2709 13.8334 20.2709C13.3134 20.9242 12.9267 21.6709 12.7 22.4709C12.4734 23.2709 12.4067 24.1109 12.5 24.9375M12.5 24.9375V30.2709M12.5 24.9375C6.48669 27.6042 5.83335 22.2709 3.16669 22.2709" stroke="#E6E6E6" stroke-width="2" stroke-linecap="round" stroke-linejoin="round"/>
</svg>
