<svg width="81" height="80" viewBox="0 0 81 80" fill="none" xmlns="http://www.w3.org/2000/svg">
<path d="M10.5 16.6667V63.3333C10.5 67.0167 13.4833 70 17.1667 70H63.8333C67.5167 70 70.5 67.0167 70.5 63.3333V16.6667C70.5 12.9833 67.5167 10 63.8333 10H17.1667C13.4833 10 10.5 12.9833 10.5 16.6667ZM46.0533 41.5033H38.9933V63.3333H33.3033V41.5033H26.39V36.6667H46.0533V41.5033ZM47.16 62.0867V56.25C47.16 56.25 50.3467 58.6533 54.1733 58.6533C58 58.6533 57.85 56.1533 57.85 55.81C57.85 52.18 47.0133 52.18 47.0133 44.14C47.0133 33.2033 62.8033 37.52 62.8033 37.52L62.6067 42.7167C62.6067 42.7167 59.96 40.95 56.9667 40.95C53.9767 40.95 52.8967 42.3733 52.8967 43.8933C52.8967 47.8167 63.8333 47.4233 63.8333 55.32C63.8333 67.48 47.16 62.0867 47.16 62.0867Z" fill="#D9D9D9"/>
</svg>
