<svg width="81" height="80" viewBox="0 0 81 80" fill="none" xmlns="http://www.w3.org/2000/svg">
<path d="M45.6 0C50 10.1813 29.825 16.4688 27.95 24.95C26.2313 32.7438 39.9375 41.8 39.95 41.8C37.8688 38.575 36.3375 35.9188 34.25 30.9C30.7188 22.4125 55.7563 14.7313 45.6 0ZM59 14.1C59 14.1 41.3 15.2375 40.4 26.55C40 31.5875 45.0563 34.2375 45.2 37.9C45.3188 40.8938 42.2 43.4 42.2 43.4C42.2 43.4 47.875 42.3188 49.65 37.75C51.6188 32.6813 45.8125 29.2563 46.4 25.2C46.9625 21.3188 59 14.1 59 14.1ZM31.2 40.25C31.2 40.25 15 40.0188 15 44.6C15 49.3875 36.2063 49.7438 51.35 46.8C51.35 46.8 55.375 44.0313 56.45 43C46.525 45.025 23.9 45.25 23.9 43.5C23.9 41.8875 31.2 40.25 31.2 40.25ZM62.35 40.25C60.7625 40.375 59.05 40.9875 57.5 42.1C61.15 41.3125 64.25 43.575 64.25 46.15C64.25 51.95 55.85 57.4 55.85 57.4C55.85 57.4 68.85 55.925 68.85 46.4C68.85 42.075 65.8438 39.975 62.35 40.25ZM27.3 49.15C24.8125 49.15 21.1 51.1 21.1 52.95C21.1 56.6688 39.8 59.5313 53.65 54.1L48.85 51.15C39.4625 54.1563 22.175 53.175 27.3 49.15ZM29.6 57.5C26.1938 57.5 23.95 59.5563 23.95 61.1C23.95 65.875 44.2938 66.3563 52.35 61.5L47.25 58.25C41.2313 60.7938 26.125 61.1813 29.6 57.5ZM18.25 61.8C12.7 61.6875 9.10001 64.1813 9.10001 66.25C9.10001 77.25 65.9 76.7438 65.9 65.5C65.9 63.6313 63.7438 62.725 62.95 62.3C67.5938 73.05 16.45 72.1938 16.45 65.85C16.45 64.4063 20.2125 63.025 23.7 63.7L20.75 62C19.8813 61.8688 19.0438 61.8188 18.25 61.8ZM71.9 69.2C63.2625 77.3875 41.375 80.3563 19.35 75.3C41.3688 84.3125 71.7938 79.2563 71.9 69.2Z" fill="#D9D9D9"/>
</svg>
