<svg width="34" height="34" viewBox="0 0 34 34" fill="none" xmlns="http://www.w3.org/2000/svg">
<path d="M22.75 12.1875C24.938 12.1875 27.0365 13.0567 28.5836 14.6039C30.1308 16.151 31 18.2495 31 20.4375V30.0625H25.5V20.4375C25.5 19.7082 25.2103 19.0087 24.6945 18.493C24.1788 17.9772 23.4793 17.6875 22.75 17.6875C22.0207 17.6875 21.3212 17.9772 20.8055 18.493C20.2897 19.0087 20 19.7082 20 20.4375V30.0625H14.5V20.4375C14.5 18.2495 15.3692 16.151 16.9164 14.6039C18.4635 13.0567 20.562 12.1875 22.75 12.1875Z" stroke="#E6E6E6" stroke-width="2" stroke-linecap="round" stroke-linejoin="round"/>
<path d="M9 13.5625H3.5V30.0625H9V13.5625Z" stroke="#E6E6E6" stroke-width="2" stroke-linecap="round" stroke-linejoin="round"/>
<path d="M6.25 9.4375C7.76878 9.4375 9 8.20628 9 6.6875C9 5.16872 7.76878 3.9375 6.25 3.9375C4.73122 3.9375 3.5 5.16872 3.5 6.6875C3.5 8.20628 4.73122 9.4375 6.25 9.4375Z" stroke="#E6E6E6" stroke-width="2" stroke-linecap="round" stroke-linejoin="round"/>
</svg>
