<svg width="101" height="86" viewBox="0 0 101 86" fill="none" xmlns="http://www.w3.org/2000/svg">
<g clip-path="url(#clip0_26_1525)">
<path d="M62.8438 16.0006C61.9062 15.9771 61.0859 16.3365 60.6641 17.3756C59.9453 19.1178 61.7344 20.8209 62.375 21.7115C62.8203 22.3287 63.3984 23.024 63.7188 23.7193C63.9297 24.1803 63.9609 24.6412 64.1406 25.1256C64.5859 26.3209 65.2969 27.6803 65.8672 28.7896C66.1562 29.3521 66.4766 29.9381 66.8438 30.4381C67.0703 30.7428 67.4531 30.8834 67.5156 31.3521C67.1406 31.8834 67.1172 32.7037 66.9062 33.3756C65.9531 36.3834 66.3125 40.1256 67.6953 42.3443C68.125 43.0318 69.1328 44.4928 70.5078 43.9381C71.7109 43.4459 71.4453 41.9225 71.7891 40.5709C71.8672 40.274 71.8203 40.0475 71.9766 39.8443V39.9068C72.3359 40.6412 72.7031 41.3756 73.0703 42.1021C73.8906 43.4146 75.3359 44.7818 76.5547 45.7115C77.1875 46.1881 77.6875 47.0162 78.5078 47.2975V47.235H78.4453C78.2891 46.985 78.0391 46.8834 77.8359 46.6881C77.3594 46.2193 76.8281 45.6334 76.4375 45.0943C75.3203 43.5865 74.3359 41.9303 73.4453 40.2115C73.0156 39.3912 72.6406 38.485 72.2812 37.649C72.1406 37.3209 72.1406 36.8365 71.8516 36.6646C71.4531 37.2818 70.875 37.774 70.5703 38.5006C70.0859 39.6568 70.0156 41.0709 69.8359 42.5318C69.7266 42.5709 69.7734 42.5396 69.7188 42.5943C68.8672 42.3834 68.5625 41.5084 68.25 40.7584C67.4531 38.86 67.2969 35.7975 68.0078 33.6178C68.1875 33.0475 69.0078 31.2662 68.6797 30.7428C68.5234 30.2193 67.9922 29.9225 67.7031 29.524C67.3359 29.0318 66.9766 28.3834 66.7266 27.8131C66.0703 26.3287 65.4531 24.61 64.7578 23.11C64.4297 22.3912 63.875 21.6725 63.4141 21.0318C62.9062 20.3287 62.3438 19.8131 61.9453 18.9537C61.8125 18.6568 61.6172 18.1725 61.8281 17.86C61.8906 17.649 61.9844 17.5631 62.1953 17.4928C62.5469 17.2193 63.5312 17.5787 63.9062 17.735C64.8828 18.1412 65.7031 18.5318 66.5312 19.0787C66.9297 19.3443 67.3281 19.8521 67.8125 20.0006H68.3594C69.2266 20.1959 70.1875 20.0553 70.9844 20.3053C72.4062 20.735 73.6797 21.4068 74.8281 22.1334C78.3516 24.3521 81.2344 27.5162 83.1953 31.2896C83.5156 31.899 83.6562 32.485 83.9375 33.1256C84.4922 34.4225 85.2031 35.7662 85.7656 37.0318C86.3203 38.3053 86.8672 39.5787 87.6562 40.6334C88.0703 41.1881 89.6797 41.4928 90.4062 41.7975C90.9141 42.0162 91.7578 42.2428 92.2344 42.5318C93.1641 43.0865 94.0547 43.7506 94.9219 44.3678C95.3594 44.6725 96.6875 45.3365 96.7578 45.8912C94.6094 45.8365 92.9688 46.0318 91.5703 46.6256C91.1719 46.7975 90.5312 46.7975 90.4688 47.2975C90.6797 47.524 90.7188 47.8678 90.8906 48.149C91.2266 48.6881 91.7891 49.4146 92.2969 49.7975C92.8516 50.2115 93.4141 50.6568 94.0078 51.024C95.0547 51.6568 96.2266 52.024 97.2422 52.6646C97.8359 53.0475 98.4375 53.524 99.0156 53.9459C99.3047 54.1646 99.4922 54.4928 99.8672 54.6256V54.5631C99.6719 54.3131 99.625 53.9693 99.4453 53.7115L98.6406 52.9068C97.8672 51.8834 96.8828 50.9771 95.8359 50.2271C95 49.6256 93.1328 48.8131 92.7891 47.8443L92.7266 47.7818C93.3125 47.7193 94.0078 47.5006 94.5547 47.3521C95.4766 47.11 96.2891 47.1725 97.2344 46.9303C97.6641 46.8053 98.0938 46.6803 98.5234 46.5631V46.3131C98.0469 45.8287 97.7031 45.1725 97.1797 44.7271C95.8125 43.5631 94.3203 42.399 92.7812 41.4303C91.9297 40.8912 90.875 40.5396 89.9766 40.0865C89.6719 39.9303 89.1406 39.8521 88.9375 39.5943C88.4609 38.9928 88.2031 38.2271 87.8359 37.524C87.0703 36.0475 86.3203 34.4381 85.6406 32.8834C85.1797 31.8287 84.875 30.7818 84.2969 29.8287C81.5234 25.274 78.5391 22.5162 73.9141 19.8131C72.9297 19.235 71.75 19.0162 70.5 18.7193C69.8203 18.6725 69.1562 18.6334 68.4766 18.5943C68.0703 18.4225 67.6406 17.9225 67.2578 17.6725C66.2969 17.0709 64.4062 16.024 62.8438 16.0006ZM69.4609 22.6256C69.0156 22.6178 68.6953 22.6803 68.3594 22.7506V22.8131H68.4219C68.6328 23.2506 69.0156 23.5318 69.2812 23.9068C69.4844 24.3365 69.6797 24.7662 69.8828 25.1959L69.9453 25.1334C70.3203 24.8678 70.5 24.4381 70.5 23.7896C70.3438 23.6334 70.3203 23.4303 70.1953 23.2428C70.0156 22.985 69.6797 22.8443 69.4609 22.6256ZM4.24219 47.9928C3.64062 48.0162 2.98437 48.1334 2.27344 48.36C1.08594 48.7193 0.5 49.4303 0.5 50.8756V66.0006H4.50781V51.2428L10.0625 63.86C10.75 65.4303 11.6875 65.9928 13.5234 65.9928C15.3672 65.9928 16.2656 65.4303 16.9531 63.86L22.5078 51.5631V66.0006H26.5078V50.8756C26.5078 49.4303 25.9297 48.7193 24.7344 48.36C21.8906 47.4615 19.9766 48.235 19.1172 50.1803L13.4141 63.0084L7.89844 50.1803C7.27344 48.7193 6.02344 47.9225 4.24219 47.9928ZM53 48.0006C51.4219 48.0006 46.5078 48.1881 46.5078 52.0006V54.4693C46.5078 56.2193 48.0469 57.649 51.3828 58.0006C51.7578 58.024 52.1328 58.0553 52.5078 58.0553C52.5078 58.0553 56.3984 57.9771 56.5078 58.0006C58.7578 58.0006 58.5078 59.7506 58.5078 60.0006V62.0006C58.5078 62.274 58.4453 64.0006 56.4844 64.0006H46.5078V66.0006H56.5234C57.8359 66.0006 59.1094 65.7271 60.125 65.2506C61.8125 64.4771 62.5078 63.4303 62.5078 62.0553V59.1959C62.5078 56.1256 58.6953 56.0006 56.5078 56.0006H52.5078C50.9375 56.0006 50.6953 55.0475 50.5078 54.0006V52.0006C50.6953 51.2037 51.0469 50.1256 52.4375 50.0006H62.5078V48.0006H53ZM68.4688 48.0006C65.5156 48.4068 64.4766 49.8756 64.4766 52.0006V62.0006C64.4766 63.9459 65.5625 65.1178 67.7969 65.7271C68.5469 65.9381 69.2266 66.024 69.8672 66.024L74.3203 66.0006H76.9375L79.1641 68.0006H83.6641L80.5703 65.2115C82.0234 64.61 82.4766 63.6881 82.4766 61.9615V52.0006C82.4766 49.8756 81.0938 48.4068 78.1406 48.0006H68.4688ZM84.5078 48.0006V61.9146C84.5078 64.3287 85.875 65.6881 89.4922 65.9615C89.8281 65.9771 90.1719 66.0006 90.5078 66.0006H100.508V64.0006H91.2656C89.2031 64.0006 88.5078 63.1334 88.5078 61.899V48.0006H84.5078ZM70.8516 50.0006H76C77.3594 50.0006 78.2734 51.0943 78.4766 52.0006C78.4766 52.0006 78.5078 61.3131 78.5078 62.0006C78.5078 62.6881 78.125 63.0006 78.125 63.0006L77.0391 62.0006H72.5078L74.7344 64.0006H70.8516C69.4609 64.0006 68.6797 62.9693 68.4766 62.0006V52.2037C68.4766 51.1412 69.2891 50.0006 70.8516 50.0006ZM28.5078 54.0006C28.5859 54.0787 28.5078 62.524 28.5078 62.6881C28.5391 64.4381 30.7578 65.9693 34.2344 66.0006H40.5078V66.1334C40.5078 66.5084 40.7812 67.7584 38.5078 68.0006C38.4844 68.0006 28.5312 68.0006 28.5078 68.0006V70.0006H38.9375C40.7031 69.9459 44.5312 69.5475 44.5078 66.485C44.5078 66.4303 44.5234 54.0006 44.5078 54.0006H40.5078V64.0006C40.4453 64.0006 35.5547 64.0162 34.5703 64.0006C32.6406 63.9693 32.4766 62.8678 32.5078 62.4459V54.0006H28.5078Z" fill="#D9D9D9"/>
</g>
<defs>
<clipPath id="clip0_26_1525">
<rect width="100" height="86.0011" fill="white" transform="translate(0.5 -0.000488281)"/>
</clipPath>
</defs>
</svg>
