<svg width="97" height="88" viewBox="0 0 97 88" fill="none" xmlns="http://www.w3.org/2000/svg">
<path d="M51.86 11.4399C50.3655 11.4399 48.8737 11.8017 47.5446 12.5249L21.9846 26.4041C19.3888 27.8086 17.78 30.4077 17.78 33.18V63.7532C17.78 66.6303 19.4798 69.2736 22.2175 70.6519L30.5933 74.8689C31.8827 75.5187 33.2785 75.831 34.6758 75.831C36.1753 75.831 37.6559 75.4593 39.0135 74.7256C41.6263 73.2949 43.1847 70.7689 43.1847 67.96V34.7153H37.5047V67.96C37.5047 69.3068 36.5383 69.9864 36.118 70.2118C35.7034 70.4371 34.5893 70.9075 33.3113 70.2629L24.9466 66.0562C24.0321 65.595 23.46 64.7122 23.46 63.7532V33.18C23.46 32.2577 23.9945 31.3896 24.8578 30.918L50.4178 17.0387C51.3039 16.5566 52.4161 16.5618 53.3022 17.0387L78.8622 30.918C79.7199 31.3896 80.26 32.2577 80.26 33.18V63.7737C80.26 64.717 79.6934 65.605 78.7846 66.0766L53.2246 78.9221C52.3726 79.3413 51.3475 79.3413 50.4955 78.9221L45.5033 76.4042C44.5377 77.5047 43.34 78.4533 41.92 79.2394C41.4656 79.5014 41.0099 79.7065 40.5555 79.8638L47.7664 83.528C49.0728 84.1569 50.44 84.4799 51.86 84.4799C53.28 84.4799 54.6472 84.1569 55.9536 83.528L81.5136 70.6416C84.24 69.2791 85.94 66.656 85.94 63.7737V33.18C85.94 30.4077 84.3367 27.8086 81.7466 26.4041L56.1866 12.5249C54.8546 11.8017 53.3546 11.4399 51.86 11.4399ZM60.1027 33.9476C51.1283 33.9476 46.5794 36.8337 46.5794 42.5249C46.5794 48.9708 54.626 49.9298 58.4941 50.3857C59.0507 50.4539 59.5444 50.5121 59.9363 50.5802L61.6336 50.8566C67.5408 51.7684 68.9 52.3866 68.9 54.1421C68.9 54.9911 68.8953 57.5608 60.1027 57.5608C52.6448 57.5608 51.1167 55.519 51.1167 52.4533H45.4368C45.4368 57.1803 47.9816 62.8013 60.1027 62.8013C72.0648 62.8013 74.58 58.0935 74.58 54.1421C74.58 47.5495 67.6375 46.4688 62.5766 45.6774L60.9458 45.4216C60.4744 45.3429 59.8797 45.2697 59.2152 45.1964C55.6027 44.7666 52.2594 44.1493 52.2594 42.5352C52.2594 41.3665 52.2529 39.1934 60.1027 39.1882C65.3226 39.1882 67.9793 40.7731 67.9793 43.8965H73.6593C73.6593 39.0909 70.0881 33.9476 60.1027 33.9476Z" fill="#D9D9D9"/>
</svg>
