<svg width="80" height="80" viewBox="0 0 80 80" fill="none" xmlns="http://www.w3.org/2000/svg">
<path d="M55.8437 3.19995C52.5812 3.19995 49.7562 4.0812 47.8 4.94995C45.8812 4.3062 42.7 3.2062 38.8812 3.99995C36.6562 4.38745 34.6125 5.3062 32.7375 6.71245C29.65 5.22495 26.425 4.31245 23.0437 4.16245C20.9625 3.99995 12.4812 4.96245 9.43749 9.43745C8.31874 11.2 7.19999 13.4375 6.71874 16.1562C6.23749 18.5562 6.23749 21.2812 7.03749 26.8812C7.51874 30.7187 8.16249 33.2812 9.59999 38.5562C9.76249 39.0375 10.5625 41.6 12.9625 48.6437C13.4375 49.9187 14.4 52.3187 16.3187 54.5562C17.6 56.1562 18.8812 57.1187 20.4812 57.1187C22.5625 57.1187 24 55.6812 25.2812 54.0812C25.375 53.975 25.475 53.8562 25.5687 53.75C25.45 53.9375 25.3437 54.1437 25.2812 54.4C24.9625 56 26.8812 57.2812 28.4812 57.9187C29.7625 58.5562 31.2 58.7187 32.3187 58.7187C33.7562 58.7187 34.8812 58.4 35.5187 58.2437C36.0687 58.0562 37.2562 57.5437 38.525 56.7C38.5812 60.7875 38.6187 65.6125 38.7187 66.7187C39.2 70.8812 40.3187 73.7562 42.4 75.3562C44 76.6375 46.8812 76.7999 47.0437 76.7999C49.9187 76.7999 54.4 74.8812 56.3187 71.8437C57.2812 70.3999 57.6 69.1187 57.9187 67.3562C58.2375 66.4 58.5562 60.8 58.7187 59.6812C58.9375 57.9125 59.1062 56.1687 59.275 54.475C60.3312 54.75 61.6312 55.0437 63.0437 55.0437C65.6 55.0437 68.9625 53.2812 69.6 52.9562C70.8812 52 73.4375 49.7625 72.3187 47.8437C71.6812 46.7187 70.7187 46.7187 68.3187 47.0437C68.3187 47.0437 64.4812 47.5187 64.1562 47.3562C63.925 47.2687 63.5687 47.0437 63.1687 46.75C64 45.4625 64.7375 44.1875 65.6 43.0437C67.5187 39.3625 68.6437 36.4812 69.4437 34.2437C70.8812 30.2437 71.6812 27.0375 72.1562 24.8C73.2812 20 73.6 17.7625 72.9562 15.2C71.6812 10.7187 67.0375 6.8812 65.1187 5.76245C63.8375 5.1187 60.6437 3.19995 55.8437 3.19995ZM55.8437 6.39995C59.8437 6.39995 62.5625 7.99995 64 8.63745C65.7625 9.59995 69.7625 12.8 70.0812 15.8375C70.2437 17.6 70.4 19.3625 69.2812 24C68.6437 26.2375 68 29.1187 66.5562 33.1187C65.7562 35.3562 64.8 38.0812 62.8812 41.4437C62.8312 41.525 62.775 41.6125 62.725 41.7C62.9125 41.025 63.0437 40.4812 63.0437 40.4812C63.3625 38.8812 63.3625 37.6 63.2 35.6812C63.0375 34.7187 62.8812 32.3187 62.8812 31.3562C62.8812 30.8812 63.3562 25.9187 63.5187 24.1562C63.6812 21.2812 61.9187 17.7562 61.4437 17.1187C59.0437 13.4375 57.7625 11.3625 55.2 9.2812C54.5625 8.73745 53.4687 7.8312 51.9812 6.9187C53.1562 6.6312 54.4562 6.39995 55.8437 6.39995ZM41.7062 7.0562C43.7937 7.1062 45.5625 7.6812 46.8812 8.16245C50.2437 9.2812 52.3187 11.0375 53.2812 11.8375C55.3625 13.6 56.4812 15.3625 58.8812 19.0437C59.0562 19.3937 59.5125 20.1375 59.875 21.175C56.6 20.875 54.425 22.025 53.1187 23.2C51.2 24.8 51.3562 27.2 51.5187 28.9562C51.5187 30.2375 51.8437 31.8437 54.2437 37.2812C55.2 39.6812 56.1562 42.2375 57.1187 44C57.6187 44.9937 58.2312 45.9062 58.8875 46.7187C58.5062 46.9125 58.1187 47.1625 57.7562 47.5187C56.8 48.6375 56.6375 49.7625 56.3187 51.8437C56 53.4437 55.6812 56.8 55.5187 59.5187C55.5187 60.6375 55.0437 66.0812 54.8812 66.8812C54.4 68.4812 54.2375 69.2812 53.6 70.2437C52.4812 72 48.9625 73.4437 46.8812 73.2812C46.2437 73.2812 45.2812 73.2812 44.4812 72.6437C42.7187 71.3624 42.0812 68.4812 41.9187 66.2437C41.7562 64.6437 41.9187 53.1187 41.6 50.5562C41.4375 49.9187 41.2812 48.3187 40 47.2C39.4625 46.75 38.35 46.5187 37.3 46.3625C37.3125 45.825 37.3437 45.2875 37.4437 44.8C37.6 43.8375 37.9187 43.3562 38.2437 42.5562C38.4 42.0812 38.7187 41.4437 39.0437 40.6437C40.4812 36.1625 40.1562 30.2375 39.3562 26.5562C39.2 26.2375 38.5562 23.6812 36.3187 22.2437C33.9187 20.8 31.3562 21.6 29.9187 22.0812C29.325 22.2437 28.7375 22.5 28.15 22.8C28.25 22.1312 28.3375 21.4562 28.4812 20.8C29.1187 17.6 29.7625 14.8812 31.8437 12.1625C34.0812 9.43745 36.6375 7.6812 39.5187 7.19995C40.2812 7.0812 41.0125 7.03745 41.7062 7.0562ZM21.95 7.33745C22.325 7.3312 22.6437 7.33745 22.8812 7.36245C25.3812 7.4937 27.775 8.0812 30.15 9.0812C29.8562 9.4062 29.5625 9.7312 29.2812 10.0812C26.5625 13.2812 25.9187 16.6375 25.2812 20C24.4812 24 24.3187 28.1562 24.9562 32.3187L24.6437 35.3562C24.4812 36.9562 24.1562 40 25.9187 43.2C26.5375 44.2625 27.2187 45.1625 27.9687 45.9312C26.3437 48.0812 24.6187 50.1125 22.8812 52C21.9187 53.1187 21.1187 53.9187 20.4812 53.9187C20.3187 53.9187 19.6812 53.6 18.7187 52.4812C16.9562 50.5625 16.3187 48.4812 16 47.6812C14.0812 41.9187 12.9625 38.2375 12.8 37.7562C11.5187 32.6375 10.8812 30.0812 10.2375 26.4C9.43749 21.2812 9.43749 18.7187 9.91874 16.6437C10.4 14.4 11.2 12.6375 12 11.3625C13.9625 8.2812 19.35 7.4062 21.95 7.33745ZM58.6625 24.2C59.175 24.2 59.7312 24.2625 60.3187 24.3875C60.3 25.8812 59.6812 30.5687 59.6812 31.2C59.6812 32.4812 60 35.0375 60 36C60.1625 37.7625 60.1625 38.7187 60 40C60 40 59.7625 41.1437 59.5187 41.9562C58.775 40.275 57.95 38.2687 56.9562 36C54.5562 30.5625 54.4 29.4437 54.4 28.6437C54.4 27.5187 54.4 26.0812 55.3562 25.4437C56.2562 24.6437 57.35 24.2125 58.6625 24.2ZM33.825 24.6687C34.1437 24.7062 34.4375 24.8 34.7187 24.9562C36 25.6 36.3187 27.2 36.3187 27.2C37.1187 30.7187 37.4375 36 36.1562 39.5187C36 40.1562 35.6812 40.6375 35.5187 41.1187C35.2 41.9187 34.8812 42.7187 34.5562 44.1562C34.475 44.75 34.4375 45.3375 34.4187 45.925C33.3125 45.6937 32.2687 45.3 31.5187 44.8C30.2375 44.1625 29.2812 43.0375 28.6437 41.7562C27.5187 39.3562 27.6812 37.1187 27.8437 35.8437L28.1562 32.1562C27.9312 30.3562 27.825 28.55 27.85 26.7562C28.5875 26.125 29.55 25.4812 30.8812 25.1187C31.8437 24.8812 32.8937 24.55 33.825 24.6687ZM57.4187 25.7437C57 25.7625 56.5562 25.8375 56.3187 25.9187C55.6812 26.0812 55.5187 26.0812 55.3562 26.4C55.2 26.7187 55.6812 27.2 55.8437 27.5187C56 27.5187 56.4812 28 57.1187 27.8437C57.6 27.6812 57.9187 27.3625 58.0812 27.2C58.2437 27.0375 58.8812 26.2375 58.4 25.9187C58.2375 25.7562 57.8375 25.7187 57.4187 25.7437ZM33.4625 26.9062C33.2875 26.9187 33.1187 26.9625 32.9562 27.0437C32.8 27.0437 32.4812 27.2 32.3187 27.5187C32.1562 27.8375 32.3187 28.1562 32.4812 28.3187C32.8 28.8 33.2812 29.2812 34.0812 29.2812C34.2437 29.2812 34.8812 29.2812 35.3562 28.8C35.3562 28.8 35.8437 28.3187 35.8437 27.8437C35.6812 27.5187 35.3625 27.3625 34.8812 27.2C34.5187 27.0812 33.9812 26.8687 33.4625 26.9062ZM30.5187 47.8437C31.5 48.3687 32.6812 48.7937 33.975 49.0875C33.6312 49.775 33.1375 50.3437 32.6437 50.7187C31.5187 51.5187 30.0812 52 28.6437 52.3187C28.3187 52.3187 28.1625 52.4812 27.8437 52.4812C27.0687 52.7 26.3187 52.9437 25.8062 53.475C27.375 51.7312 28.95 49.8062 30.5187 47.8437ZM61.3687 49.125C62.0687 49.65 62.7562 50.0375 63.3562 50.2437C64.3187 50.5625 65.1187 50.5625 68 50.2437C67.5187 50.7187 66.0812 51.5187 64 51.8437C62.6625 51.975 61 51.6562 59.65 51.2687C59.775 50.3625 59.9187 49.8437 60.1562 49.6C60.2437 49.5187 60.775 49.3562 61.3687 49.125ZM37.275 49.6062C37.6062 49.6625 37.8687 49.7062 37.9187 49.7562C38.2375 50.0812 38.4 50.8812 38.4 51.2C38.4187 51.475 38.4312 52.1687 38.4437 52.65C37.125 54.1937 35.0062 55.05 34.5562 55.2C33.9187 55.5187 32 55.8375 30.0812 55.2C31.6812 54.7187 33.2812 54.2437 34.5562 53.2812C35.675 52.4812 36.6375 51.2062 37.275 49.6062Z" fill="#D9D9D9"/>
</svg>
