<svg width="81" height="80" viewBox="0 0 81 80" fill="none" xmlns="http://www.w3.org/2000/svg">
<path fill-rule="evenodd" clip-rule="evenodd" d="M55.7875 6.37499C54.54 6.33304 53.2342 6.55054 51.925 6.97499C49.3066 7.8239 46.5627 9.4782 43.7469 11.7687C42.6433 12.6664 41.5298 13.6925 40.4125 14.7812C39.3199 13.7201 38.2292 12.7216 37.15 11.8437C34.3364 9.55504 31.6 7.90008 28.9875 7.0531C26.375 6.20612 23.7756 6.17987 21.6406 7.41248C19.5057 8.64508 18.229 10.9077 17.6563 13.5937C17.0835 16.2797 17.1466 19.4784 17.7219 23.0594C17.9217 24.3032 18.2067 25.6081 18.5313 26.9375C17.3114 27.3072 16.1267 27.6959 15.0281 28.125C11.7128 29.4199 8.96954 30.9691 6.97189 32.8125C4.97424 34.6559 3.68439 36.8933 3.68439 39.35C3.68439 41.8067 4.97424 44.0409 6.97189 45.8844C8.96952 47.7278 11.7128 49.2801 15.0281 50.575C16.2028 51.0338 17.4746 51.4469 18.7875 51.8375C18.3153 53.602 17.9327 55.3143 17.6719 56.9375C17.0961 60.5214 17.0354 63.7204 17.6094 66.4125C18.1834 69.1046 19.4608 71.38 21.6063 72.6187C23.7518 73.8574 26.3629 73.827 28.9813 72.9781C31.5997 72.1292 34.3404 70.478 37.1563 68.1875C38.2497 67.2981 39.3557 66.2835 40.4625 65.2062C41.5752 66.29 42.6856 67.3093 43.7844 68.2031C46.598 70.4918 49.3375 72.1436 51.9501 72.9906C54.5625 73.8376 57.162 73.8639 59.2969 72.6312C61.4319 71.3986 62.7054 69.136 63.2782 66.45C63.8509 63.764 63.7878 60.5685 63.2126 56.9875C62.9511 55.3599 62.5682 53.642 62.0938 51.8719C63.4501 51.4718 64.762 51.0476 65.9719 50.575C69.2873 49.2801 72.0305 47.7278 74.0282 45.8844C76.0258 44.0409 77.3157 41.8067 77.3157 39.35C77.3157 36.8933 76.0258 34.6559 74.0282 32.8125C72.0305 30.9691 69.2873 29.4199 65.9719 28.125C64.8576 27.6898 63.6548 27.296 62.4157 26.9219C62.7429 25.5843 63.0334 24.2701 63.2344 23.0187C63.8102 19.4349 63.871 16.2327 63.2969 13.5406C62.7229 10.8485 61.4424 8.57619 59.2969 7.3375C58.2242 6.71816 57.035 6.41692 55.7875 6.37499ZM55.6406 9.63123C56.4234 9.65264 57.0913 9.83892 57.6625 10.1687C58.805 10.8283 59.6495 12.1121 60.1 14.225C60.5505 16.3378 60.535 19.1925 60.0031 22.5031C59.821 23.6366 59.5566 24.8379 59.2562 26.0687C55.9834 25.2811 52.3972 24.6966 48.575 24.3531C46.6562 21.6949 44.6846 19.2732 42.6969 17.125C43.7483 16.0987 44.7929 15.1387 45.8125 14.3094C48.4136 12.1935 50.8762 10.7537 52.9313 10.0875C53.9588 9.75435 54.8578 9.60982 55.6406 9.63123ZM25.2781 9.6406C26.0655 9.61862 26.9664 9.76276 27.9969 10.0969C30.0579 10.765 32.5247 12.2041 35.1281 14.3219C36.1273 15.1346 37.1485 16.0762 38.1781 17.0781C36.1757 19.244 34.1878 21.6866 32.2563 24.3687C28.4502 24.7185 24.8786 25.3062 21.6219 26.0969C21.3237 24.8729 21.0593 23.6777 20.8781 22.55C20.3458 19.2365 20.3326 16.3814 20.7844 14.2625C21.2362 12.1435 22.0876 10.8501 23.2407 10.1844C23.8172 9.85152 24.4908 9.66257 25.2781 9.6406ZM40.4625 19.4281C41.7659 20.8465 43.0695 22.3986 44.3625 24.0687C43.0921 24.0158 41.8061 23.9843 40.5 23.9843C39.1679 23.9843 37.8575 24.0168 36.5625 24.0719C37.8558 22.4005 39.1588 20.8476 40.4625 19.4281ZM40.5 27.2156C42.6758 27.2156 44.7966 27.305 46.8594 27.4562C48.2788 29.4949 49.6658 31.6577 50.9875 33.9469C52.1488 35.9583 53.1997 37.9667 54.1563 39.95C53.1896 41.9596 52.1211 43.9951 50.9438 46.0344C49.9074 47.8294 48.8251 49.5343 47.725 51.1781C45.3949 51.3728 42.9805 51.4812 40.5 51.4812C37.9598 51.4812 35.4912 51.3664 33.1094 51.1625C32.0276 49.5423 30.9636 47.8632 29.9438 46.0968C28.7691 44.0623 27.7057 42.0305 26.7406 40.025C27.7098 38.0081 28.7779 35.965 29.9594 33.9187C31.2741 31.6415 32.6572 29.4912 34.0688 27.4624C36.1538 27.3078 38.2991 27.2156 40.5 27.2156ZM50.9781 27.8562C53.6157 28.1853 56.0922 28.6422 58.3969 29.1906C57.713 31.4324 56.8707 33.7741 55.85 36.1906C55.1873 34.9131 54.501 33.6313 53.7594 32.3469C52.8607 30.7903 51.9247 29.3063 50.9781 27.8562ZM29.85 27.8812C28.9234 29.3041 28.0117 30.7593 27.1313 32.2844C26.3801 33.5853 25.6796 34.8844 25.0094 36.1781C23.9975 33.7761 23.1603 31.4478 22.4813 29.2187C24.7688 28.6693 27.2308 28.2141 29.85 27.8812ZM61.5625 30.0406C62.6967 30.3838 63.7921 30.7419 64.7969 31.1343C67.8531 32.328 70.2706 33.7416 71.8375 35.1875C73.4044 36.6334 74.0844 38.0123 74.0844 39.35C74.0844 40.6876 73.4044 42.0666 71.8375 43.5125C70.2706 44.9584 67.8531 46.3719 64.7969 47.5656C63.6803 48.0017 62.4535 48.3972 61.1781 48.7718C60.2683 45.9578 59.107 43.022 57.725 40.025C59.3141 36.5841 60.5977 33.2292 61.5625 30.0406ZM19.3844 30.0562C20.3381 33.2131 21.6053 36.5346 23.1719 39.9406C21.7808 42.9551 20.6137 45.9076 19.7 48.7375C18.4695 48.3727 17.2843 47.9879 16.2031 47.5656C13.1469 46.3719 10.7294 44.9584 9.1625 43.5125C7.59564 42.0666 6.91562 40.6877 6.91562 39.35C6.91562 38.0123 7.59564 36.6334 9.1625 35.1875C10.7294 33.7416 13.1469 32.3281 16.2031 31.1344C17.1924 30.748 18.2695 30.3949 19.3844 30.0562ZM40.5 32C36.1007 32 32.5 35.6007 32.5 40C32.5 44.3993 36.1007 48 40.5 48C44.8993 48 48.5 44.3993 48.5 40C48.5 35.6007 44.8993 32 40.5 32ZM25.0469 43.7844C25.72 45.0845 26.4201 46.3892 27.175 47.6968C27.7657 48.7199 28.3689 49.7158 28.9813 50.6937C26.8325 50.3958 24.79 50.0185 22.8719 49.5719C23.4819 47.7037 24.2116 45.7644 25.0469 43.7844ZM55.8906 43.7844C56.7293 45.7691 57.4594 47.7115 58.0719 49.5844C56.1477 50.0305 54.0989 50.4065 51.9437 50.7031C52.5641 49.7132 53.1768 48.7049 53.775 47.6687C54.5244 46.3707 55.2217 45.075 55.8906 43.7844ZM21.95 52.6781C24.8457 53.3641 27.9844 53.891 31.3125 54.2344C33.5342 57.4478 35.8488 60.3352 38.1781 62.8594C37.1365 63.875 36.1041 64.8281 35.0938 65.65C32.4926 67.7659 30.0269 69.2025 27.9719 69.8688C25.9168 70.535 24.3831 70.4471 23.2406 69.7875C22.0981 69.1279 21.2568 67.8441 20.8063 65.7312C20.3557 63.6184 20.3682 60.7668 20.9 57.4563C21.1413 55.9544 21.5018 54.3462 21.95 52.6781ZM58.9969 52.6906C59.4488 54.3689 59.8104 55.9829 60.0531 57.4937C60.5854 60.8072 60.5987 63.6623 60.1469 65.7812C59.6951 67.9002 58.8499 69.1968 57.6969 69.8625C56.5438 70.5282 54.9954 70.615 52.9344 69.9468C50.8734 69.2787 48.4065 67.8396 45.8031 65.7219C44.7855 64.8941 43.746 63.9332 42.6969 62.9094C45.0419 60.3753 47.3728 57.4732 49.6094 54.2406C52.9459 53.8996 56.0933 53.3758 58.9969 52.6906ZM35.4875 54.5625C37.1303 54.652 38.7948 54.7125 40.5 54.7125C42.1488 54.7125 43.7593 54.6557 45.35 54.5719C43.7239 56.7657 42.0665 58.7602 40.4156 60.5562C38.7658 58.7564 37.1114 56.7583 35.4875 54.5625Z" fill="#D9D9D9"/>
</svg>
