<svg width="81" height="80" viewBox="0 0 81 80" fill="none" xmlns="http://www.w3.org/2000/svg">
<g clip-path="url(#clip0_26_1542)">
<path d="M40.5 16.0067C29.8333 16.0067 23.1667 21.3384 20.5 32.0017C24.5 26.67 29.1667 24.6717 34.5 26.0034C37.5433 26.7634 39.7183 28.9717 42.1267 31.415C46.0467 35.3934 50.585 40 60.5 40C71.1667 40 77.8333 34.6684 80.5 24.0034C76.5 29.335 71.8333 31.335 66.5 30.0034C63.4583 29.2434 61.2833 27.035 58.875 24.5917C54.9533 20.6117 50.4133 16.0067 40.5 16.0067ZM20.5 40C9.83333 40 3.16667 45.3317 0.5 55.9967C4.5 50.665 9.16667 48.665 14.5 49.9984C17.5417 50.76 19.7167 52.9667 22.125 55.4084C26.0467 59.3884 30.5867 63.995 40.5 63.995C51.1667 63.995 57.8333 58.6634 60.5 47.9984C56.5 53.33 51.8333 55.33 46.5 53.9967C43.4567 53.2367 41.2817 51.0284 38.8733 48.5867C34.9533 44.6067 30.415 40 20.5 40Z" fill="#D9D9D9"/>
</g>
<defs>
<clipPath id="clip0_26_1542">
<rect width="80" height="80" fill="white" transform="translate(0.5)"/>
</clipPath>
</defs>
</svg>
